{"title":"Downton Abbey S06E09 - Finale x264 RB58.mp4","uid":13094339,"size":1074819862,"categoryP":"video","categoryS":"tv_shows","magnet":"?xt=urn:btih:20f8716431ac5eb1c3ef31b68646cc370b75713e&amp;dn=Downton+Abbey+S06E09+-+Finale+x264+RB58.mp4&amp;tr=udp%3A%2F%2Ftracker.leechers-paradise.org%3A6969&amp;tr=udp%3A%2F%2Fzer0day.ch%3A1337&amp;tr=udp%3A%2F%2Fopen.demonii.com%3A1337&amp;tr=udp%3A%2F%2Ftracker.coppersurfer.tk%3A6969&amp;tr=udp%3A%2F%2Fexodus.desync.com%3A6969","seeders":7,"leechers":0,"uploader":"RedBaron58","files":1,"time":1451095771,"description":"Downton Abbey S06E09 - The Finale x264 mp4\r\n \nhttp://www.imdb.com/title/tt1606375/\r\n\r\nTrailer:\r\n\r\n\r\nPlease be patient My intial upload speed is limited.\r\nThank you for your kind comments and feedback on my other torrents, your feedback is welcome.\r\n\r\n\r\nAbout the Episode:\r\nJulian Fellowes bids farewell to the Crawleys with one last festive special, catching up \r\nwith the Abbey's residents at the tail-end of 1925. \r\nMary endeavours to build bridges, but Edith's secret continues to pose a threat. \r\nAs Henry settles into the role of husband, scars left by Charlie's death are slow to heal, \r\nwhile Carson struggles to come to terms with developments that prove even he is not \r\ninvulnerable to change. Spratt's moonlighting venture is threatened by the conniving \r\nof Denker, and Daisy may have missed her chance with an admirer.\r\n \r\nStarring Maggie Smith, Hugh Bonneville and Michelle Dockery\r\n\r\nI hope you enjoy.\r\n\r\n\r\nTechnical:\r\n\r\nGeneral\r\nComplete name                            : G:Downton Abbey S06E09 - Finale x264 RB58.mp4\r\nFormat                                   : MPEG-4\r\nFormat profile                           : Base Media\r\nCodec ID                                 : isom\r\nFile size                                : 1.00 GiB\r\nDuration                                 : 1h 33mn\r\nOverall bit rate                         : 1 529 Kbps\r\nWriting application                      : Lavf54.63.104\r\n\r\nVideo\r\nID                                       : 1\r\nFormat                                   : AVC\r\nFormat/Info                              : Advanced Video Codec\r\nFormat profile                           :   \r\nFormat settings, CABAC                   : Yes\r\nFormat settings, ReFrames                : 4 frames\r\nCodec ID                                 : avc1\r\nCodec ID/Info                            : Advanced Video Coding\r\nDuration                                 : 1h 33mn\r\nBit rate                                 : 1 400 Kbps\r\nWidth                                    : 832 pixels\r\nHeight                                   : 468 pixels\r\nDisplay aspect ratio                     : 16:9\r\nFrame rate mode                          : Constant\r\nFrame rate                               : 25.000 fps\r\nColor space                              : YUV\r\nChroma subsampling                       : 4:2:0\r\nBit depth                                : 8 bits\r\nScan type                                : Progressive\r\nBits/(Pixel*Frame)                       : 0.144\r\nStream size                              : 939 MiB (92%)\r\nWriting library                          : x264 core 123 r2189 35cf912\r\nEncoding settings                        : cabac=1 / ref=3 / deblock=1:0:0\r\n\r\nAudio\r\nID                                       : 2\r\nFormat                                   : AAC\r\nFormat/Info                              : Advanced Audio Codec\r\nFormat profile                           : LC\r\nCodec ID                                 : 40\r\nDuration                                 : 1h 33mn\r\nBit rate mode                            : Constant\r\nBit rate                                 : 120 Kbps\r\nChannel(s)                               : 2 channels\r\nChannel positions                        : Front: L R\r\nSampling rate                            : 48.0 KHz\r\nCompression mode                         : Lossy\r\nStream size                              : 80.4 MiB (8%)","torrent":{"xt":"urn:btih:20f8716431ac5eb1c3ef31b68646cc370b75713e","amp;dn":"Downton+Abbey+S06E09+-+Finale+x264+RB58.mp4","amp;tr":["udp%3A%2F%2Ftracker.leechers-paradise.org%3A6969","udp%3A%2F%2Fzer0day.ch%3A1337","udp%3A%2F%2Fopen.demonii.com%3A1337","udp%3A%2F%2Ftracker.coppersurfer.tk%3A6969","udp%3A%2F%2Fexodus.desync.com%3A6969"],"infoHash":"20f8716431ac5eb1c3ef31b68646cc370b75713e","infoHashBuffer":{"type":"Buffer","data":[32,248,113,100,49,172,94,177,195,239,49,182,134,70,204,55,11,117,113,62]},"announce":[],"urlList":[]}}